<svg width="180" height="130" fill="none" xmlns="http://www.w3.org/2000/svg"><g clip-path="url(#a)"><path opacity=".1" d="M57.7 4.9C62.5.6 70-.3 77 .1c21.6 1 41.2 11.5 58.1 23.3a60.9 60.9 0 0 1 16.2 14.8c8 12 5.7 28.7-5.6 38.6-3.8 3.4-8.5 6-13.2 8.2-8.5 4-17.7 7.4-27.3 8.3a136 136 0 0 1-74-18.9A38.6 38.6 0 0 1 15 58c-2.8-7-1-15.8 6-19.9 2.9-1.7 6.4-2.4 9.8-3.1 5-1.1 10-2.2 14.6-4.3C50 28.4 55.6 24 54.6 19c-1-5.3-1.8-9.9 3-14.2ZM141.2 118.2c10 0 18-.5 18-1.1 0-.7-8-1.2-18-1.2s-18.1.5-18.1 1.2c0 .6 8 1.1 18 1.1ZM94.1 110.4c10 0 18.1-.5 18.1-1.1 0-.7-8-1.2-18-1.2s-18.2.5-18.2 1.2c0 .6 8.1 1.1 18.1 1.1ZM27.7 128.9c10 0 18-.6 18-1.2s-8-1.2-18-1.2-18.1.6-18.1 1.2 8 1.2 18 1.2ZM62 130c4.2 0 7.5-.2 7.5-.5 0-.2-3.3-.5-7.4-.5-4.2 0-7.5.3-7.5.5 0 .3 3.3.5 7.5.5ZM173.7 117.6a23 23 0 0 0 5.8-.4c0-.2-2.6-.4-5.8-.4a23 23 0 0 0-5.9.4c0 .2 2.6.4 5.8.4ZM120.4 109.8c2.7 0 5-.2 5-.3 0-.2-2.3-.3-5-.3s-5 0-5 .3c0 .1 2.3.3 5 .3Z" fill="#00BAFC"/><path d="M174.5 108.3s.8 1-.4 2.5c-1.1 1.6-2 2.9-1.7 3.8 0 0 1.7-2.8 3.1-2.9 1.4 0 .5-1.7-1-3.4Z" fill="#00BAFC"/><path opacity=".1" d="m174.5 108.3.2.3c1.3 1.6 2 3.1.7 3.1-1.2 0-2.7 2.3-3 2.8v.1s1.8-2.8 3.1-2.9c1.4 0 .5-1.7-1-3.4Z" fill="#000"/><path d="m176 109.6-.2.6v-.8c.1 0 .1-.2.1.2ZM176.4 110l-.6.2.5-.3c.4-.2.2 0 .3 0l-.2.1Z" fill="#FFD037"/><path d="M170.4 108.3s-.8 1 .3 2.5c1.2 1.6 2.1 2.9 1.7 3.8 0 0-1.7-2.8-3-2.9-1.5 0-.6-1.7 1-3.4Z" fill="#00BAFC"/><path opacity=".1" d="m170.4 108.3-.2.3c-1.3 1.6-2 3.1-.8 3.1 1.3 0 2.7 2.3 3 2.8v.1s-1.7-2.8-3-2.9c-1.5 0-.6-1.7 1-3.4Z" fill="#000"/><path d="M169 109.6v.6l.1-.6v-.2c-.1 0-.2-.2-.2.2Z" fill="#FFD037"/><path d="M168.4 110c.4.2.6.3.7.2l-.6-.3c-.3-.2-.2 0-.2 0s-.2 0 .1.1Z" fill="#FFD037"/><path d="M169.2 114.5s2.2 0 2.8-.5c.7-.5 3.4-1 3.5-.3.2.7 3.3 3.7.8 3.7-2.4 0-5.7-.4-6.3-.8-.7-.4-.8-2.1-.8-2.1Z" fill="#A8A8A8"/><path opacity=".2" d="M176.4 117.2c-2.5 0-5.7-.4-6.4-.8-.5-.3-.7-1.4-.7-2h-.1s.1 1.8.8 2.2c.6.4 3.9.8 6.3.8.7 0 1-.2 1-.6-.1.2-.4.4-1 .4Z" fill="#000"/><path d="M121.3 101.8s.6.9-.3 2.2c-1 1.3-1.8 2.4-1.5 3.3 0 0 1.5-2.5 2.7-2.5 1.2 0 .4-1.5-1-3Z" fill="#00BAFC"/><path opacity=".1" d="m121.3 101.8.1.3c1.2 1.4 1.8 2.7.7 2.7-1 0-2.3 1.9-2.6 2.3v.2s1.5-2.5 2.7-2.5c1.2 0 .4-1.5-1-3Z" fill="#000"/><path d="M122.5 103v.5l-.2-.6c0-.3 0-.1.1-.1v.1Z" fill="#FFD037"/><path d="m123 103.3-.6.2.4-.3c.3-.2.2 0 .2 0s.2 0 0 .1Z" fill="#FFD037"/><path d="M117.7 101.8s-.6.9.4 2.2c1 1.3 1.7 2.4 1.4 3.3 0 0-1.5-2.5-2.7-2.5-1.1 0-.4-1.5 1-3Z" fill="#00BAFC"/><path opacity=".1" d="M117.7 101.8v.3c-1.2 1.4-1.9 2.7-.8 2.7 1 0 2.3 1.9 2.6 2.3v.2s-1.5-2.5-2.7-2.5c-1.1 0-.4-1.5 1-3Z" fill="#000"/><path d="M116.5 103v.5l.2-.6c0-.3 0-.1-.1-.1v.1Z" fill="#FFD037"/><path d="m116 103.3.6.2-.4-.3c-.3-.2-.2 0-.2 0s-.2 0 0 .1Z" fill="#FFD037"/><path d="M116.7 107.1s1.9 0 2.4-.4c.6-.4 2.9-.9 3-.3.2.7 2.8 3.2.7 3.2-2 0-4.8-.3-5.4-.6-.6-.3-.7-1.9-.7-1.9Z" fill="#A8A8A8"/><path opacity=".2" d="M122.9 109.4c-2.1 0-4.9-.3-5.5-.6-.4-.3-.6-1.2-.6-1.7 0 0 0 1.5.6 1.9.6.3 3.3.7 5.4.6.6 0 .9-.2.8-.5 0 .2-.3.3-.7.3Z" fill="#000"/><g opacity=".8"><path opacity=".8" d="M25 102.8a12.4 12.4 0 1 1 0 24.7 12.4 12.4 0 0 1 0-24.7Z" fill="#E74D89"/><path opacity=".8" d="M25 128.4a13.2 13.2 0 1 1 0-26.5 13.2 13.2 0 0 1 0 26.5ZM36.2 117c-2.3-.7-4.7-.9-7.1-.5 1 2.6 1.7 5.3 2.2 8a11.2 11.2 0 0 0 4.9-7.5Zm-6.8 8.6a47.2 47.2 0 0 0-2.5-8.6 15.6 15.6 0 0 0-8.9 7.1 11.3 11.3 0 0 0 11.4 1.5Zm-12.8-2.9a18 18 0 0 1 9.2-7.4l.4-.2-.9-1.9a41.9 41.9 0 0 1-11.6 1.6v.4c0 2.8 1 5.5 2.9 7.5Zm-2.7-9.8c3.5 0 7-.5 10.5-1.4a72.6 72.6 0 0 0-4.2-6.6 11.4 11.4 0 0 0-6.3 8Zm8.4-8.7c1.6 2 3 4.3 4.3 6.6 4-1.5 5.7-3.8 5.9-4a11.3 11.3 0 0 0-10.2-2.6Zm11.4 3.8a15 15 0 0 1-6.3 4.5 48.7 48.7 0 0 1 1 2.2c3.8-.5 7.5.3 8 .4-.1-2.6-1-5.1-2.7-7Z" fill="#B2215A"/></g><path d="M55.6 77.4c-.3-.3-.6-3-.6-3L53.7 68 53 64s-.2-4.8-3.2-7.2l-.2-.1v-.2c0-.4-.1-.9-.3-1.3a1 1 0 0 1-.1-.5v-.1l.6-.5a2.4 2.4 0 0 0 1.1-1.5v-.5a1.3 1.3 0 0 0-.7-1 .5.5 0 0 0 .3-.3.6.6 0 0 0 0-.3V50.3c0-.3-.3-.6-.6-.8C48.6 48 48.4 46 48 44c-.2-1.1-.6-2.3-1.6-2.7a8 8 0 0 0-.9-.2c-.9-.3-1.6-1-2.5-1.2-.6-.2-1.3-.3-1.9-.2l-1.3.4c-1 .3-2.2 0-3 .8-.5.6-.6 1.4-.9 2.2-.5 1.3-1.8 2.3-2.1 3.7-.2.9 0 1.8.2 2.7a10 10 0 0 1 .4 2.4l-.3 1.3c-1.1.4-2.3 1-2.4 1.2-.2.5-2.8 2-2.8 2s-1 1-1 1.3c0 .3-.4 1.3-.6 1.3-.2 0-.7 4.3-.7 4.3v4.3s-1.5 5.2-2 9.8c0 0-.6 2.9.5 4.6l.5.6.5 1.4.7-.9.1.6.2 1c-.3.5-1.1 1.6-2 2-1 .4.2 1.4 1 2-.2 1-.5 2.3-.8 2.4-.4.3-1.8 4-1.8 4s-2.7 6.3 1.2 7c3.9.7 5.8-1 5.8-1h1s1-.6 1.1-2c.6-.4 1.6-1.2 1.8-1.6.2-.3-.3-1.4-.7-2l.1-.2s3.7-4.7 4.2-4.2c.4.5.7 1.3.5 1.8l.2 3v4.4s-.5 2 0 2.3c.5.2 0 1 0 1l.2 1.2v1l-.1 4.6-.4 6.6s-.4.6 0 1c.2.3.1 1.2 0 1.4l-.1 1.5s-1.2 1.3-.3 1.6c-.3.4-.3 1.3-.3 1.5a8 8 0 0 1-.7 2.4v1.3s4.8.4 5.2 0c.2-.2.2-.6 0-1a10 10 0 0 0-.7-1.8c-.3-.5-.1-1.2-.1-1.2v-.5h.5s.6-.4.3-.9c-.2-.4.5-3 .5-3l.8-3.2 1-4s1.7-6.8.9-10c0 0 .7-.7.6-1-.1-.2-.3-1 0-1.4.3-.4 1.5-5 1.9-5.8l.9-2.4c1.7-.2 3.7-.7 3.7-.7l-.5-2.6.2-1v-.2l.5.5.3-1.7v-.2l2.6-3.5c.9-.8.3-4.4 0-4.8Z" fill="url(#b)"/><path d="M45.3 49.6h-4.7v5.3h4.7v-5.3Z" fill="#925978"/><path opacity=".1" d="M45.3 49.6h-4.7v5.3h4.7v-5.3Z" fill="#000"/><path d="M33.7 95.2s1.2 1.9.9 2.4c-.3.5-2.3 2-2.3 2l-.6-3.9 2-.5Z" fill="#FF6484"/><path d="m30 101.3.8-.1h1s1.1-.7 1-2.2v-2.8l-2.9 5Z" fill="#575988"/><path opacity=".1" d="m30 101.3.8-.1h1s1.1-.7 1-2.2v-2.8l-2.9 5Z" fill="#000"/><path d="m31.7 81.9-5 5.5s-.5 3.5-1 3.8c-.4.3-1.7 4-1.7 4s-2.6 6.2 1.2 7c3.7.6 5.6-1 5.6-1l3.2-5.8s3.5-4.7 4-4.2c.4.5.7 1.3.5 1.8l.2 2.9v4.4s-.5 2 0 2.3c.5.2 0 1 0 1l.3 1.2v1l-.2 4.5-.3 6.6s-.4.6-.1 1c.3.3.1 1.2 0 1.4v1.5s-1.3 1.3-.3 1.6c1 .3 3.7.7 3.7.7s.6-.5.3-1c-.2-.4.5-3 .5-3l.8-3.1 1-4s1.5-6.7.8-9.9c0 0 .7-.7.6-1-.1-.2-.3-1 0-1.4l1.8-5.8 1.7-4.6v-7L31.7 82Z" fill="#575988"/><path d="m46.5 57-2.8 5.4-.8 1.4-.1.2-7.4.3L35 63a35 35 0 0 1-1.9-6.2c0-1 0-1.8.8-1.8h.4c.5.1 1 .2 1.5.1 1.7-.2 2.2-2 2.3-3.7V50l-.2-1.8 1.4-.5c1.4-.3 3.3-.3 3.4 2.6l.1 1.9.4 1c.5 1 1.2 1 1.5 1h.1l1.8 2.7Z" fill="#FFC5CB"/><path opacity=".1" d="m39.2 60 .1 1v1c0 .3-.2.6-.5.8M41.3 52.7a4.4 4.4 0 1 0 0-8.9 4.4 4.4 0 0 0 0 8.9Z" fill="#000"/><path d="M45.7 48a4.4 4.4 0 1 1-8.9 0 4.4 4.4 0 0 1 8.9 0Z" fill="#FFC5CB"/><path opacity=".1" d="M34.2 59.1s1.5 4.1 4.8 3.5c0 0 3.4.2 5.3-2.2 1.9-2.5 2 14 2 14l-.7 11s-5.4 3.1-7.7 2.7c-2.3-.4-3.4-1.6-3.4-1.6s-2.5-2.3-3.1-2.6c-.7-.3.3-14.4.3-14.4l.8-5.3 1.7-5Z" fill="#000"/><path d="M34.2 58.8s1.5 4 4.8 3.4c0 0 3.4.3 5.3-2.2 1.9-2.4 2 14 2 14l-.7 11s-5.4 3.2-7.7 2.8c-2.3-.4-3.4-1.6-3.4-1.6s-2.5-2.3-3.1-2.6c-.7-.3.3-14.4.3-14.4l.8-5.3 1.7-5.1Z" fill="#E8F4FF"/><path opacity=".1" d="M34 81.9s3.5 4 3.3 4.4c-.2.4-3.4-3.2-3.3-4.4ZM33.4 72s1.1 1.6 1.8 1.4L33.4 72Z" fill="#000"/><path opacity=".1" d="M35.8 55.1v.1a260 260 0 0 1-1.3 11.3c-.6.6-.3 6-.3 6v7s-.5 2.1-.9 2.6c-.3.5-1.3 2.4-2 2.6l-.7.5a43 43 0 0 0-2.3 2.7l-1 1.3s-3-1.8-1.7-2.4a5.4 5.4 0 0 0 2.2-2.3l.3-1c0-.4.2-.8.4-1 .2-.3.4-.5.7-.6 1.1-.2 1.6-10.4 1.6-10.4l-3.3-7.2-.3-.8s.4-4.1.6-4.1c.2 0 .6-1 .6-1.4 0-.3 1-1.2 1-1.2s2.6-1.5 2.7-2c.1-.3 1.3-.9 2.4-1.3l2-.7c.5.9-.7 2.3-.7 2.3Z" fill="#000"/><path d="M35.7 55.1v.1a261.2 261.2 0 0 1-1.4 11.3c-.5.6-.3 6-.3 6v7s-.5 2.1-.8 2.6c-.4.5-1.3 2.4-2 2.6l-.7.5A43 43 0 0 0 28 88l-1 1.3s-2.9-1.8-1.6-2.4c.9-.4 1.7-1.5 2-2l.2-.3.2-1 .5-1c.1-.3.4-.5.7-.6 1-.2 1.6-10.4 1.6-10.4l-3.3-7.2-.4-.8s.4-4.1.7-4.1c.2 0 .5-1 .5-1.4 0-.3 1-1.2 1-1.2s2.6-1.5 2.8-2c0-.3 1.3-.9 2.4-1.3l2-.7c.5.9-.7 2.3-.7 2.3Z" fill="#FF6484"/><path opacity=".1" d="m52.1 64.6-3.6 4.2a199 199 0 0 0 3.4 22s-4.1 1-5.4 1c-1.3-.2-.6-2.3-.4-3.2.2-1-1.4-2.3-1.4-2.3L42.5 77s-.2-2.1-.7-3c-.5-1 0-2.2-.2-3.6a32 32 0 0 1 1.7-8.1c.3-.3 0-2 0-2l.7-4.9.4-1.1.3-.6s1.6 1 4.4 3.3l.2.2c3 2.3 3 7 3 7l-.2.4Z" fill="#000"/><path d="m52.3 64.6-3.6 4.2a199 199 0 0 0 2.9 19.5l.5 2.6s-4.2 1-5.5.8c-1.2-.1-.5-2.2-.3-3.1.2-1-1.4-2.3-1.4-2.3L42.6 77s-.1-2.1-.6-3c-.5-1 0-2.2-.2-3.6a32 32 0 0 1 1.6-8.1c.4-.3 0-2 0-2s.8-4.5.7-4.9c0-.2.2-.7.5-1.1l.3-.6s1.6 1 4.3 3.3l.3.2c2.9 2.3 3 7 3 7l-.2.4Z" fill="#FF6484"/><path opacity=".1" d="M44.7 66.8c0 .4 1 18 2.1 19l-2-19Z" fill="#000"/><path d="M30.8 91.3c-1.2.7-2-1.2-2.6-3.4a36 36 0 0 1-.9-4l-.1-1.2 1.2-.3 1.3-.3.2 1.6v.7l.6.8c.8 1.6 2.1 5 .3 6ZM52 86l-.2 1.4-.2.9s-3.6 5-4.8 2.9c-.9-1.6 1.3-4 2.3-5.2l.6-.6 1.7.4.7.2Z" fill="#FFC5CB"/><path d="M42.1 127.5c-.4.4-5 0-5 0s-.2-1.2 0-1.3l.2-.4.5-2c0-.3 0-1.7.9-1.6 0 0 1.2-2.5 2.6.6v.8l.1 1.1c.3.6.6 1.2.7 1.8.2.5.2.8 0 1Z" fill="#FF6484"/><path d="M42.1 127.5c-.4.4-5 0-5 0s-.2-1.2 0-1.3l.2-.4c.6-.3 1.4-.5 2-.3l2.8 1c.2.5.2.8 0 1Z" fill="#E8F4FF"/><path opacity=".1" d="m38 51.5.3 1.4c0 .7-.3 1.3-.6 1.9-.3.7-.7 1.4-.6 2.2l.2.8c.3.9.2 1.8-.2 2.7-.3.5-.8 1-1.4.9 0-.6-.1-1.3-.4-1.8l-.5-.5-1.4-.7-.2-.3-.2-1v-.2l.4-1.2.3-.6.7-1.6 2-.6c.5.8-.7 2.2-.7 2.2v.2c1.7-.3 2.2-2.1 2.3-3.8ZM40.5 45.2c-.5.2-1 .5-1.2 1-.2.5 0 1-.1 1.6l-.1.4c-.2.7-.9 1.2-1.1 1.8v.2l-.1.8a4.4 4.4 0 1 1 5.6.9l.5-1.7c.4-1.3.5-2.9-.4-4a3 3 0 0 0-3.1-1ZM49.1 58.6c-.1.6-.5 1.1-1 1.1l-.8-.2c-.4 0-.7.2-1 .5l-.5 1c-.4.8-1.2 1.5-2 1.4h-.1l-.3-.1c-.8-.4-1.2-1.4-1.2-2.3 0-1 .5-2 .6-3l.1-2.8.2-1c.5 1 1.1 1.1 1.5 1.1l.3-.6s1.6 1 4.3 3.3c.1.5 0 1 0 1.6Z" fill="#000"/><path d="M42.9 40.3c.8.3 1.6 1 2.4 1.2l.9.2c1 .4 1.3 1.6 1.5 2.7.4 1.9.6 4 1.9 5.4.2.2.5.5.6.8 0 .3 0 .8-.4.8.6.3.9 1 .7 1.6 0 .6-.5 1.1-1 1.4-.3.2-.6.4-.6.7v.4c.4.9.5 1.9.2 2.8-.1.5-.5 1-1 1l-.8-.1c-.4 0-.7.2-1 .5l-.5 1c-.4.7-1.2 1.5-2 1.3-1-.1-1.6-1.3-1.6-2.3 0-1 .5-2 .6-3l.1-2.8c.2-1.4.8-2.7 1.1-4 .4-1.4.5-3-.4-4a3 3 0 0 0-3.1-1c-.5.1-1 .5-1.2 1-.3.5 0 1.3-.2 2s-1 1.2-1.2 2c-.2.8.4 1.7.4 2.6 0 .7-.3 1.3-.6 2-.3.6-.7 1.4-.6 2.1l.2.9c.3.8.2 1.8-.2 2.6-.3.6-.8 1.1-1.4 1 0-.9-.2-1.8-.9-2.3-.4-.3-1-.4-1.4-.8a1.6 1.6 0 0 1-.4-1.3c0-.4.2-.9.4-1.3.5-1 1-2 1.1-3.2.1-1.7-1-3.4-.6-5 .4-1.4 1.7-2.4 2.1-3.7.3-.7.3-1.6.9-2.1.7-.8 1.9-.6 2.9-.8.4-.1.8-.4 1.3-.4.6-.1 1.2 0 1.8.1Z" fill="#925978"/><path opacity=".1" d="M31.1 75.6V81.7c0 1.5-.3 3-.3 3a5 5 0 0 0-.9-1c-.8-.7-1.5-.6-2-.3l-.6.5-.1-1.2 1.2-.3c.1-.2.4-.4.7-.5 1-.2 1.6-10.4 1.6-10.4l-3.3-7.2v-.4l1.1-1.8c1.9-1.6 2.3.7 2.3.7l.3 6.5v6.3Z" fill="#000"/><path d="M30.8 75.2V81.3c0 1.5-.3 3-.3 3-2.3-3.2-4-.2-4-.2l-.5-1.4-.4-.6c-1-1.6-.4-4.5-.4-4.5.3-4.6 1.8-9.7 1.8-9.7v-4.4l1.2-1.7c1.8-1.6 2.6.7 2.6.7v12.7Z" fill="#FF6484"/><path opacity=".1" d="M30.8 81.1c0 1.5-.3 3-.3 3-2.3-3.2-4-.2-4-.2l-.4-1.3-.5-.6c1-.6 3.4-1.7 5.2-.9Z" fill="#000"/><path d="M30.8 81.3c0 1.5-.3 3-.3 3-2.3-3.2-4-.2-4-.2l-.4-1.4c-.2-.1-.4-.3-.5-.6 1-.6 3.4-1.7 5.2-.8Z" fill="#FF6484"/><path opacity=".1" d="M30.8 81.3c0 1.5-.3 3-.3 3-2.3-3.2-4-.2-4-.2l-.4-1.4c-.2-.1-.4-.3-.5-.6 1-.6 3.4-1.7 5.2-.8Z" fill="#fff"/><path opacity=".1" d="M27.7 70.1s.7 4.1 1.5 5.3c.7 1.2-1.5-5.3-1.5-5.3ZM25.8 77s.4 2.5 1.4 2.8c1 .3-1.4-2.7-1.4-2.7ZM51.4 85.8l.7.2-.3 1.4-.4-.4c-.6-.6-1.4-1-2.3-1h-1l.3-1.6c0-.3 0-.5-.2-.7-.3-.4-.4-4.7-.4-4.7s.2-2.1.4-2.5c.2-.4-.7-2.5-.7-3.2L48 67c0-.3 1.1-6 3.3-3.8l1 1.2v.3l-3.6 4.2a199 199 0 0 0 2.7 17Z" fill="#000"/><path d="M55.1 82.2c-.7.7-2 3-2.4 3.5l-.1.2-.4 1.7s-1.1-2-3.8-1.5l.3-1.7-.1-.7c-.3-.4-.5-4.7-.5-4.7l.4-2.5c.2-.4-.7-2.5-.7-3.2l.6-6.4c0-.3 1-6 3.3-3.8l.9 1.2.6 3.8 1.3 6.5s.3 2.5.6 3c.3.3.8 3.8 0 4.6Z" fill="#FF6484"/><path opacity=".1" d="M52.6 85.6v.1l-.4 1.7s-1.1-2-3.8-1.5l.3-1.7c.9 0 2.8.3 4 1.4Z" fill="#000"/><path d="M52.6 85.7v.2l-.4 1.7s-1.1-2-3.8-1.5l.3-1.7c.9 0 2.8.3 4 1.3Z" fill="#FF6484"/><path opacity=".1" d="M52.6 85.7v.2l-.4 1.7s-1.1-2-3.8-1.5l.3-1.7c.9 0 2.8.3 4 1.3Z" fill="#fff"/><path opacity=".1" d="M50 74.1s2.8 0 3.2 1.5c.4 1.4-3.3-1.5-3.3-1.5ZM49.4 78.3S54.2 78 54 80c-.3 2-4.6-1.8-4.6-1.8ZM49.7 81.4s.4 0 .6.8c.3.9-.6-.8-.6-.8ZM40 101.7s1.2-.4 1.7 0c.5.3-1.6 0-1.6 0ZM40.3 102.9s2.7 0 3 .3c.2.3-3-.3-3-.3Z" fill="#000"/><g opacity=".1" fill="#000"><path opacity=".1" d="M34.5 51.7c.1-1.3-.5-2.7-.6-4-.1 1.3.6 2.7.6 4ZM37.7 54c-.3.6-.7 1.3-.6 2 0-.5.3-1 .6-1.5.3-.6.6-1.3.6-2v-.2c0 .6-.3 1.1-.6 1.7ZM49.8 51c.1 0 .2 0 .3.2v-.6a.5.5 0 0 1-.3.3ZM37 59.6c-.2.6-.7 1.1-1.3 1 0-.9-.2-1.8-.9-2.3-.4-.3-1-.4-1.4-.8-.2-.2-.4-.5-.4-.9v.1a1.6 1.6 0 0 0 .4 1.3c.4.4 1 .5 1.4.8.7.5.8 1.4.9 2.2.6.2 1.1-.3 1.4-.9.3-.5.4-1.2.4-1.8 0 .4-.2 1-.4 1.3ZM50.5 52.5c0 .6-.5 1.1-1 1.5-.3.1-.6.3-.6.6v.3l.5-.4c.6-.4 1-.9 1.1-1.5a1.5 1.5 0 0 0 0-.5ZM49.1 57.8c-.1.5-.5 1.1-1 1l-.8-.1c-.4 0-.7.2-1 .5l-.5 1c-.4.8-1.2 1.5-2 1.3-1 0-1.5-1-1.6-2v.2c0 1 .5 2.2 1.6 2.3.8.2 1.6-.5 2-1.3l.6-1c.2-.3.5-.6.9-.5l.8.2c.5 0 .9-.6 1-1.1l.2-1.4-.2.9ZM43.6 45.9c.4.6.7 1.3.7 2 0-1-.1-1.8-.7-2.5a3 3 0 0 0-3.1-1c-.5.2-1 .5-1.2 1-.3.5 0 1.3-.2 2s-1 1.2-1.2 2v.7-.3c.2-.7 1-1.2 1.2-2 .2-.6 0-1.4.2-2 .2-.4.7-.7 1.2-.9a3 3 0 0 1 3.1 1Z"/></g><g opacity=".8"><path opacity=".8" d="M94.4 109.3a13.3 13.3 0 1 0 0-26.5 13.3 13.3 0 0 0 0 26.5Z" fill="#1769FF"/><path opacity=".8" d="M90.5 90c.6 0 1 0 1.6.2.4 0 .8.2 1.2.5.4.2.6.5.8.9.2.4.3 1 .3 1.4 0 .5-.1 1-.4 1.5a3 3 0 0 1-1.3 1c.7.2 1.3.6 1.7 1.1a3.7 3.7 0 0 1 .2 3.5 3 3 0 0 1-1 1.1c-.4.3-.8.5-1.3.6-.5.2-1 .2-1.6.2h-5.8V90h5.6Zm-.3 4.9 1.2-.3c.3-.3.4-.6.4-1.1l-.1-.7-.4-.5-.6-.2a4 4 0 0 0-.7 0h-2.5v2.8h2.7Zm.2 5h.7l.6-.2.5-.5.1-.8c0-.6-.2-1-.5-1.3-.4-.3-.9-.4-1.4-.4h-2.9v3.3h2.9Zm7.9-.2c.3.4.9.6 1.5.6.5 0 1-.2 1.3-.4.3-.2.5-.5.6-.8h2.1a4 4 0 0 1-1.5 2.3c-.8.4-1.7.7-2.6.6a5 5 0 0 1-1.8-.3 3.8 3.8 0 0 1-2.3-2.4 5.3 5.3 0 0 1 0-3.6 4.2 4.2 0 0 1 2.3-2.5l1.8-.3c.7 0 1.4.1 2 .4a4.7 4.7 0 0 1 2.1 2.8c.2.6.2 1.3.2 2h-6.3c0 .7.2 1.3.6 1.6Zm2.7-4.5c-.3-.4-.7-.5-1.3-.5a2 2 0 0 0-1 .2 1.8 1.8 0 0 0-.9 1l-.1.6h3.9c-.1-.6-.3-1-.6-1.3Zm-3.7-4.6h4.8V92h-4.8v-1.4Z" fill="#fff"/></g><g opacity=".8"><path opacity=".8" d="M154.4 103.8v.4a13.3 13.3 0 1 1 0-.4Z" fill="#B3BBC6"/><path opacity=".8" d="M154.3 104.2a13.3 13.3 0 0 1-11.6 12.8l-10.8-8 1.3-8.9 5.4.4 3 2.5 2.2-3.5 3.6 3 2 1.4v-4.4l4.9 4.6Z" fill="#666C76"/><path opacity=".8" d="M140.1 104.1c0-2.8-1.7-4.7-5-4.7H132v9.5h3.3c3.2 0 5-2 5-4.8Zm-2.3 0c0 2-1 3-2.7 3h-.9v-5.9h.9c1.6 0 2.7 1 2.7 3Zm11.7 4.8v-9.5h-2.2v5.3l-3.5-5.3h-2.3v9.5h2.2v-5.7l3.7 5.7h2Z" fill="#fff"/></g><path d="m144.4 89.7-1.7-2.6V87l-.6-2.2v-.2c.3 0 .6-.2.6-.3.4-.6-.3-1.4-.3-1.4l-.1-3.4-.4-8-.8-3.4c-.2-.6-1.2-2-1.2-2s.2-.6 0-1.1c-.3-.5-1-2.7-1-2.7l-.5-6.1-.2-6h.7V50l-.4-1c.1-.5.6-2.2 1-2.9.2-.4-.3-3.6-.7-5.8v-.5l1.3-2.3 2.5-7.2c.7-2.2 0-7.8 0-7.8v-.7c-.2-1.2-.6-3.5-2.3-4.4-2.3-1.2-3-2.7-3-2.7s-2.9-2.6-3.3-1.7a5.7 5.7 0 0 1-.5-1.6l1-1v.5a.5.5 0 0 0 .5-.3l.2-.6c0-.4.2-.8.5-1.2l.6-1.2v-.2l-.2-.6v-.5l.1-.3v-.8a1.1 1.1 0 0 0-.5-.9c-.2 0-.4 0-.5-.2-.5-.2-.6-.7-.9-1.1a2 2 0 0 0-1.6-1c-.7 0-1.3.3-2 .2-.4 0-.7-.3-1.2-.3-.6 0-1.1.3-1.6.7-.4.2-.8.5-.9 1 0 .3 0 .7-.2 1l-.5.5-.1.5v.5c0 .4 0 .6-.2 1V7.7l.1.3.2-.2V8a4.4 4.4 0 0 0 1.3 3.1v.2l-.3 1.5v.2h-.9s.2-.6-1.2.1c-1.4.8-3 1.1-3.3 1.3l-3.4 2.5s-2.7 1.6-2.6 4.2l-.3 3-.2 5.6s-.4 4.7 0 5.4c.4.6 1.1 4.5 1 5 0 .4 1 3 1.6 4.4a6 6 0 0 0-.5.6l-.3 1.3c-.6.6-1.6 1.6-1.6 1.9 0 .3.2.6 0 .6-.4 0-.4.3-.4.5 0 .3-.4 0-.3.3 0 .4-2.9 7-2.9 7s-1.3 3.1-1.8 3.7A8 8 0 0 0 109 64v1c-.3 0-.8.8-.8.8l-2.2 6.8s-.6 2.1-.8 2.1c-.2 0-.7 3.6-.7 3.6l-.5 1.1.2.2h-.1a7 7 0 0 1-.7.6s-1.2-.9-2.1-.8c-.9 0-2.7.3-3.6-.3a5 5 0 0 0-2.3-.7c-.7 0-1.3.1-1.3.7 0 1 3 3.2 3 3.2s3.4 1 4 1.8c.6 1 3.3 2.3 3.3 2.3s.8-.4 1-.7a.3.3 0 0 0 .2-.3c0-.4 1-2 1-2l.2-.8a41 41 0 0 1 .4-1.4h.4c1-.5 1.2-1.7 1.2-1.7l1.7-3.5s.7-2 1-2.4l1.9-4s.3-1.5.6-2l.3-1.5s.6-1.5 1.2-2.1l1.1-1.6s2.6-4 4.3-5.2c0 0 4.2-5 4.4-5.5.3-.4 1-1.6 2-.6l2 2.5 1.7 4.6 1.9 6s.9 1.4.8 1.7c0 .3 1.5 3 1.5 3s.6 1 .4 1.5c0 .5.5 1 .5 1l.1 2s.6 2 .5 2.3c-.2.3.6 2.2.6 2.2s0 1.7.2 2.3a13.1 13.1 0 0 1 .6 4.6h.5v.1l.2 1.7v.1a.7.7 0 0 0-.2.5 84.8 84.8 0 0 0 .3 4 .5.5 0 0 0 .4.1h2.4c.9.3 1.8.4 2.7.3v-2Z" fill="url(#c)"/><path d="M142.2 87.2h-3.7v-.4l-.2-1.7-.1-1.2h3.3l.2.9.5 2.2v.2ZM107.5 80.6l-.3 1-.4 2h-.1l-3 .7s-1.5-3.5-.8-3.6c.2 0 .5-.1.7-.3a6.8 6.8 0 0 0 1.4-1.1s2.7 1 2.5 1.3Z" fill="#FFAAB0"/><path opacity=".1" d="m107.5 80.6-.3 1c-1-.1-2.5-1.3-3-1.7l.8-.6s2.7 1 2.5 1.3ZM141.7 84.8c-1 .2-2.6.3-3.4.3l-.1-1.2h3.3l.2.9Z" fill="#000"/><path d="M117.7 46.1s-2 2-2 2.4c0 .3.1.6-.2.6-.3 0-.3.3-.3.5 0 .3-.3 0-.3.3 0 .5-2.8 7-2.8 7s-1.3 3.1-1.8 3.6a8 8 0 0 0-1.1 3.7c0 .9 0 1.1-.2 1.1s-.6.8-.6.8l-2.2 6.8s-.6 2-.8 2c-.2 0-.7 3.6-.7 3.6l-.5 1.1c-.1 0 2.4 2.2 3.5 1.7 1-.4 1.2-1.6 1.2-1.6l1.6-3.5s.7-2 1-2.4l1.9-4s.3-1.5.6-2c.2-.4.3-1.4.3-1.4s.5-1.6 1.2-2.2c.4-.5.8-1 1-1.6 0 0 2.6-4 4.3-5l4.4-5.6c.2-.4 1-1.6 2-.5.9 1 1.8 2.4 1.8 2.4l1.7 4.6 1.9 6s.9 1.3.8 1.6c0 .3 1.5 3 1.5 3s.5 1 .4 1.5c0 .5.4 1 .4 1l.2 2s.6 2 .4 2.3c-.1.3.6 2.2.6 2.2s0 1.7.3 2.3c.3.5.6 2.7.6 2.9V85s4.1 0 4.5-.7c.4-.6-.3-1.4-.3-1.4l-.1-3.3-.4-8.1-.9-3.3c0-.7-1-2-1-2s.1-.7-.1-1.1c-.3-.5-1-2.7-1-2.7l-.4-6.1-.3-6.6-20-3.6Z" fill="#DCE6F2"/><path opacity=".1" d="M138.5 50.4c-.1-.2-6.9-.2-7-.2l-2.6-1s-5.7-1-6.6-.6c-.9.5-3.6-.7-3.6-.7v-.6s-1.5-.4-1.5-.6l.3-1.2h.2l.6-.2 19.4 3a81.3 81.3 0 0 0 .8 2Z" fill="#000"/><path d="m138.5 50.2-7-.2-2.6-1s-5.7-1-6.6-.5c-.9.4-3.6-.8-3.6-.8v-.5l-1.5-.6.3-1.2h.2l.6-.3 19.4 3.1a80.9 80.9 0 0 0 .8 2Z" fill="#F1FAFF"/><path opacity=".1" d="m107 82.6-.2.8-.1.2-3 .7s-1.5-3.5-.8-3.6c.2 0 .5-.1.7-.3-.2 1.1.7 2.3.7 2.3 1.2.9 2.7 0 2.7 0Z" fill="#000"/><path d="m107 82.8-.2.8s-1.1 1.6-1 2l-.1.1v.1c-.4.4-1.2.7-1.2.7s-2.6-1.3-3.2-2.2c-.6-.9-3.9-1.8-3.9-1.8s-3-2.1-3-3.2c0-.5.6-.7 1.3-.7.8 0 1.8.3 2.3.7.9.6 2.7.4 3.5.3.9 0 2.1.8 2.1.8-.3 1.1.7 2.4.7 2.4 1.2 1 2.7 0 2.7 0Z" fill="#575988"/><path d="M105.6 85.8c-.3.4-1 .7-1 .7s-2.6-1.3-3.3-2.2c-.6-.9-3.9-1.8-3.9-1.8s-3-2.1-3-3.2c0-.5.6-.7 1.3-.7.5.8 1.2 2 1.7 2.3a254.4 254.4 0 0 0 5.6 3.4c.2.2 1.8 1.2 2.6 1.5Z" fill="#F1FAFF"/><path opacity=".1" d="M142.2 87.2h-3.7v-.4c.4-.5 1.4-.7 1.4-.7.7-.2 2 .7 2.3 1v.1Z" fill="#000"/><path d="M144 90.6v1.1c-1 .1-1.8 0-2.7-.2H139a.5.5 0 0 1-.7-.6v-.7l-.1-2.8c0-.8 1.7-1.1 1.7-1.1.8-.3 2.3 1 2.3 1s1.6 2.1 1.7 2.5c0 0 .1.4 0 .8Z" fill="#575988"/><path d="M144 90.6v1.1c-1 .1-1.8 0-2.7-.2H139a.5.5 0 0 1-.7-.6v-.7c.6 0 1.6-.2 2.2 0l3.5.4Z" fill="#F1FAFF"/><path opacity=".1" d="M106.3 74s-.5 1 0 1.5c.6.4 0-1.5 0-1.5ZM137.4 77.9c.2.3.6.8.6 1.4-.1.5-.6-1.4-.6-1.4Z" fill="#000"/><path d="m137 17.4-5.2-.6h-.1c-3-.4-6.2-1-5.6-1.3.3-.2.5-.6.7-1.1l.3-1v-.2a22.3 22.3 0 0 0 .5-3.4s6.5-2.5 5.7.6v1.5c0 .5.2 1 .4 1.4 1 2.2 3.2 4.1 3.2 4.1Z" fill="#FFAAB0"/><path opacity=".1" d="M133.3 10.4v1.5a4.4 4.4 0 0 1-5.9-.3l.2-1.8s6.5-2.5 5.7.6Z" fill="#000"/><path d="M134.9 8.3a4.4 4.4 0 1 1-8.8 0 4.4 4.4 0 1 1 8.8 0Z" fill="#FFAAB0"/><path opacity=".1" d="M131.8 16.6v.2h-.1c-3-.4-6.2-1-5.6-1.3.3-.2.5-.6.7-1.1l.3-1v-.2h.2s.3 2.1 3.1 2.5h.1c1.1.1 1.4.5 1.3 1Z" fill="#000"/><path d="M131.7 16.8c-.2.7-1.3 1.5-1.3 1.5l-3.3-.6-2-1.9 1.2-2.5h.8s.3 2.2 3.2 2.6c1.2.1 1.5.5 1.4.9Z" fill="#F1FAFF"/><path opacity=".1" d="m137 17.4-5.3-.6c-.2.7-1.3 1.5-1.3 1.5l-3.3-.6-2-1.9 1.2-2.5.5 1c.5.8 1.5 1.7 3.3 1.6h.2c2.7-.3 3.3-2.1 3.4-2.6 1 2.2 3.2 4.1 3.2 4.1ZM138.2 49.2v.2c-.8-.5-5.6-.8-5.6-.8l-2.5-.3a10.5 10.5 0 0 1-2.2-.6c-1.1-.3-4.5-.7-4.5-.7s-1.6.7-2.5.4c-.9-.3-3.4-1.9-3.4-1.9l.2-.2.6-.2 19.4 3.1.5 1Z" fill="#000"/><path d="M138.5 40.5c.3 2.2.8 5.4.6 5.9-.4.7-1 2.9-1 2.9-.7-.5-5.5-.8-5.5-.8l-2.5-.4a10.5 10.5 0 0 1-2.2-.5c-1.1-.4-4.5-.8-4.5-.8s-1.6.8-2.5.4c-.9-.3-3.4-1.8-3.4-1.8l1.2-1.4a32 32 0 0 0 2.4-7.5s-.4-2.2-.3-3.4c.1-1.3-.3-7.3-.3-7.3S116 24 116 21.4c-.1-2.6 2.5-4.2 2.5-4.2s3-2.4 3.3-2.5c.3-.1 2-.5 3.3-1.2 1.3-.8 1.2-.2 1.2-.2s.5 3 3.8 2.7c3.3-.1 3.7-2.7 3.7-2.7.3-.9 3.1 1.8 3.1 1.8a7 7 0 0 0 3 2.7c1.7.8 2 3.1 2.2 4.3v.7l-6.6 4.8 2.6 10.8.4 2.1Z" fill="#575988"/><path d="M122 46.2s2.2 3.7 4.5 2.7c.5-.2 1-.6 1.2-1.1.9-1.6 0-3.5-1.7-4-.7-.1-1.4-.2-2-.1-1.5.2-2 2.5-2 2.5Z" fill="#FFAAB0"/><path opacity=".1" d="M122 46.2s2.2 3.7 4.5 2.7c.5-.2 1-.6 1.2-1.1.9-1.6 0-3.5-1.7-4-.7-.1-1.4-.2-2-.1-1.5.2-2 2.5-2 2.5ZM118.8 18.8s1.8 1.2 1.8 3l-1.8-3ZM121.5 19.7c0 .1-.5 7.8.4 10.4 1 2.6-.4-10.4-.4-10.4ZM134.9 8.3c0 .9-.3 1.7-.7 2.4v-.1a3 3 0 0 0-.5-1.3 2.5 2.5 0 0 0-1-1v-.7a1.5 1.5 0 0 0-1.3-1.2h-.3c-.2.1-.2.3-.3.4h-.6c-.4 0-.9-.2-1.3 0-.7.2-1 1.2-1.7 1.4h-.7a1 1 0 0 0-.4.1 4.4 4.4 0 1 1 8.8 0Z" fill="#000"/><path d="m126.2 5.4.4-.5c.2-.3.1-.7.2-1 .1-.4.5-.7.9-1 .5-.3 1-.7 1.6-.6l1.2.3 2-.2a2 2 0 0 1 1.5 1c.3.4.4.9.9 1.1l.5.2a1.1 1.1 0 0 1 .5.9v2.2c.1.5-.3 1-.5 1.3-.3.4-.5.8-.6 1.3l-.1.6a.5.5 0 0 1-.5.3v-1c0-.4-.3-.8-.5-1.2a2.5 2.5 0 0 0-1-1v-.6a1.5 1.5 0 0 0-1.3-1.3h-.3c-.2.1-.2.3-.3.4h-.6c-.4 0-.9-.2-1.3 0-.7.2-1 1.2-1.7 1.4a4 4 0 0 1-.7 0 .7.7 0 0 0-.5.3c-.3-.2-.2-.6-.1-.9l.2-1c0-.3-.2-.7 0-1Z" fill="#794F6A"/><path opacity=".1" d="M110 65.5s-1.5.9-.7 1c.9.2.8-1 .8-1ZM136 67.5s.8-1.1 1.8-.4c1 .7-1.9.4-1.9.4ZM138 68.3s1-.4 1.7 0H138ZM116.6 49.5s2.3 2.2 3 2.3c.8.1-3-2.3-3-2.3ZM116.9 20.2l-.6 1.2-.3 3-.2 5.5s-.5 4.7 0 5.4c.4.7 1 4.6 1 5a21 21 0 0 0 2.1 5.5c.4.3 1.7.3 2.4.2l1.3 1.2 3.7-3.4-2.3-1.7s.5-1-1-1.9c0 0-.6-1-.6-1.7 0-1.1-.3-2.3-.6-3.4-.6-1.6-.9-10.2-.9-10.2s-1.2-6.2-4-4.7Z" fill="#000"/><path d="m116.6 20.2-.6 1.2-.3 3-.3 5.5s-.4 4.7 0 5.4c.4.7 1.2 4.6 1 5a21 21 0 0 0 2.2 5.5c.4.3 1.6.3 2.3.2l1.4 1.2 3.7-3.4-2.3-1.7s.5-1-1-1.9c0 0-.6-1-.7-1.7a85.9 85.9 0 0 1-1.4-13.6s-1.2-6.2-4-4.7Z" fill="#575988"/><path opacity=".1" d="M122.3 40.9c-.1 0-3.5 3.1-2.2 3.2 1.2.1 2.2-3.2 2.2-3.2Z" fill="#000"/><path d="M126.6 44.6s-4.8.5-4.6 2.4c.3 2 3.7 3.8 4.8 3.2l2-1.1-2.2-4.5Z" fill="#FFAAB0"/><path opacity=".1" d="m141.1 21.5.7 1.3s.7 5.6 0 7.8l-2.5 7.2-2.1 3.8c0 .2-4 6-4.7 6.2-.8.4-2.1.2-2.2-.1 0-.4-1.9 1.4-1.9 1.4s-3.5-4.3-3-4.7c.6-.4 2.3-.6 2.3-.6s.1.5.3-.4c.1-.8.7-1.3 1.2-1.2.5 0 .3-.5.4-1 0-.5 1.3-1.5 1.3-1.5s.7-1 .7-1.6c0-.6 1.3-1.1 1.4-1.1v-1.1c0-1 .8-2.5.8-2.5l.4-5 .7-5s2-6.1 6.2-2Z" fill="#000"/><path opacity=".1" d="m138.1 38.4.4 2.1-.6 1.1c0 .2-4 6-4.8 6.2-.7.3-2 .2-2.1-.1 0-.2-.4 0-.9.4l-1 1-1.2-1.5c-1-1.3-2.1-3-1.8-3.2.6-.4 2.3-.6 2.3-.6s0 .5.2-.4c.2-.8.8-1.3 1.3-1.2.4 0 .2-.5.3-1 .1-.5 1.4-1.5 1.4-1.5s.6-1 .6-1.6c0-.6 1.4-1.1 1.5-1.1v-1.1c0-1 .7-2.5.7-2.5l.4-5 .7-5s2-6.1 6.3-2l.3.7v.7l-6.6 4.8 2.6 10.8Z" fill="#000"/><path d="m141.4 21.5.7 1.3s.7 5.6 0 7.8l-2.4 7.2-2.2 3.8c0 .2-4 6-4.7 6.2-.7.4-2 .2-2.2-.1 0-.4-1.9 1.4-1.9 1.4s-3.5-4.3-3-4.7c.6-.4 2.3-.6 2.3-.6s.2.5.3-.4c.1-.8.8-1.3 1.2-1.2.5 0 .3-.5.4-1 0-.5 1.4-1.5 1.4-1.5s.6-1 .6-1.6c0-.6 1.3-1.1 1.4-1.1l.1-1.1c0-1 .7-2.5.7-2.5l.4-5 .7-5s2-6.1 6.2-2Z" fill="#575988"/><path opacity=".1" d="M129.2 43.6s.1.4.9.5c.7.2-1-.5-1-.5ZM138 21.5s-2.4 2.9-2 3.6c.6.7 2-3.6 2-3.6ZM135.3 34.2s1.4 1.4 1.1 2c-.3.7-1.1-2-1.1-2ZM135.5 31.6c0 .2 3.1.5 3.3 1.7.1 1.1-3.3-1.7-3.3-1.7Z" fill="#000"/><g opacity=".1" fill="#000"><path opacity=".1" d="M135.8 6.8v-.2l.1-1v.7l-.1.5ZM126 6.5v-.7.7ZM136 7.7c-.1.4-.4.8-.7 1.1l-.5 1.3-.1.6a.5.5 0 0 1-.6.3v.3a.5.5 0 0 0 .6-.3l.1-.6.5-1.2c.3-.5.7-.9.7-1.4ZM134.2 10a3 3 0 0 0-.5-1.2 2.5 2.5 0 0 0-1-1v-.7a1.5 1.5 0 0 0-1.3-1.2h-.3c-.2.1-.2.3-.3.4a.7.7 0 0 1-.6 0c-.4 0-.9-.2-1.3 0-.7.2-1 1.2-1.7 1.4h-.7a.7.7 0 0 0-.5.3l-.2-.3a.7.7 0 0 0 .2.6.7.7 0 0 1 .5-.3h.7c.7-.2 1-1.2 1.7-1.4.4-.2.9 0 1.3 0a.7.7 0 0 0 .6 0l.3-.3h.3a1.5 1.5 0 0 1 1.2 1.2c0 .2 0 .5.2.6l.2.2.7.8.5 1.3V10Z"/></g><path d="M79.8 24.3v17.3a.3.3 0 0 0 .3.3 9 9 0 0 0 8.8-9A9 9 0 0 0 80 24a.3.3 0 0 0-.2.3Z" fill="#61BEEC"/><path d="M67.9 48V33.6c0-2.3.7-4.5 2-6.4a7.7 7.7 0 0 1 6.6-3.2.3.3 0 0 1 .2.3v14.8s.5 8-8.6 9a.2.2 0 0 1-.2-.1Z" fill="#4064AC"/><path opacity=".1" d="M30.3 22.4a5.2 5.2 0 1 0 0-10.4 5.2 5.2 0 0 0 0 10.4ZM19.4 8a3.2 3.2 0 1 0 0-6.5 3.2 3.2 0 0 0 0 6.5ZM2.5 14a2 2 0 1 0 0-4 2 2 0 0 0 0 4Z" fill="#00BAFC"/><path d="m68.3 111-.4.8v.2H67v-.3c0-1 0-2.1-.9-1.6-.8.5-.2 1.3.3 1.8l.2.2c-.5.3-.6 1-.7 1.9 0 .8-.7 1.7-1.2 2.2l-.1.1a1.7 1.7 0 0 0-1.4-.3v-.2c-.4-1.4-1.2-3.7-2.1-4.2v-.1c.5-.6 1-1.4.3-1.6-.7-.2-.8.7-.7 1.4v.2a1 1 0 0 0-.7.4l-.1-.2c-.6-.6-1.6-1.7-2-.9-.2.8.7 1.7 1.3 2.3-.4 1.8 1.5 3.2 2.5 3.8h.1a15.2 15.2 0 0 0-2.2 4.8l3.9.7s2.5-2.2 2.2-4.3c2.6-.6 3.2-3.3 2.8-5a3 3 0 0 0 1.2-.9c.8-1-.7-2-1.5-1.1Z" fill="#00BAFC"/><path opacity=".1" d="m68.3 111-.4.8v.2H67v-.3c0-1 0-2.1-.9-1.6-.8.5-.2 1.3.3 1.8l.2.2c-.5.3-.6 1-.7 1.9 0 .8-.7 1.7-1.2 2.2l-.1.1a1.7 1.7 0 0 0-1.4-.3v-.2c-.4-1.4-1.2-3.7-2.1-4.2v-.1c.5-.6 1-1.4.3-1.6-.7-.2-.8.7-.7 1.4v.2a1 1 0 0 0-.7.4l-.1-.2c-.6-.6-1.6-1.7-2-.9-.2.8.7 1.7 1.3 2.3-.4 1.8 1.5 3.2 2.5 3.8h.1a15.2 15.2 0 0 0-2.2 4.8l3.9.7s2.5-2.2 2.2-4.3c2.6-.6 3.2-3.3 2.8-5a3 3 0 0 0 1.2-.9c.8-1-.7-2-1.5-1.1Z" fill="#000"/><path d="m60.6 112.2-.5 1.3-.6-.4c-.6-.6-1.5-1.5-1.2-2.3.3-.8 1.3.3 1.9 1l.4.4ZM61.5 111.5l-.4.5-.1-.7c0-.7 0-1.6.7-1.4.7.2.2 1-.2 1.6ZM67.4 111.7v.8l-.6-.5c-.5-.6-1.1-1.4-.3-1.9s1 .7.9 1.6ZM70 112.2a3.2 3.2 0 0 1-1.6 1l-.4-.7c0-.2 0-.5.2-.7 0-.3.2-.5.3-.7.8-1 2.3.1 1.6 1.1Z" fill="#00BAFC"/><path opacity=".1" d="m60.2 111.7.4.5-.5 1.3-.6-.4c.1-.4.3-.9.6-1.2v-.2ZM61.5 111.5l-.4.5-.1-.7c.2 0 .4 0 .5.2Z" fill="#000"/><path d="m63.8 116.7-1.2.5-.6-.3c-1.2-.7-3.5-2.6-2-4.7 1.7-2.2 3 1.7 3.5 3.6l.3 1Z" fill="#00BAFC"/><path opacity=".1" d="M66.8 112c.1-.2.4-.3.6-.3v.8l-.6-.5ZM68.9 113.1l-.4.2-.5-.8c0-.2 0-.5.2-.7.3.2.6.7.7 1.3Z" fill="#000"/><path d="M66 118H66c-3.8.7-1.3-1.4-1.3-1.4l.4-.4c.5-.5 1.2-1.4 1.3-2.2 0-1.2.2-2.4 1.7-2 1.4.3 1.7 5.3-2 6Z" fill="#00BAFC"/><path d="M66 127.5h-7.2v1.9H66v-2Z" fill="#D4DFEC"/><path d="M67 121.3h-9.4v6.7h9.5v-6.7Z" fill="#D4DFEC"/><path opacity=".1" d="M66 127.5h-7.2v1.9H66v-2Z" fill="#000"/><path opacity=".1" d="M67 121.3h-9.4v6.7h9.5v-6.7Z" fill="#000"/><path d="M66.5 127.5h-7.3v1.9h7.3v-2Z" fill="#D4DFEC"/><path opacity=".1" d="m63.5 115.8.3 1-1.2.4-.6-.3c.5-.6 1-1 1.5-1.1ZM66 118H66c-3.8.7-1.3-1.4-1.3-1.4l.4-.4c.7.6 1 1.2 1 1.9Z" fill="#000"/><path d="M60 121.7s2-7.6 5-5.3c3 2.4-1.2 6-1.2 6l-3.9-.7Z" fill="#00BAFC"/><path opacity=".1" d="M61 113.6a.2.2 0 1 0 0-.5.2.2 0 0 0 0 .5ZM61 114.7a.2.2 0 1 0 0-.5.2.2 0 0 0 0 .5ZM67.9 113.8a.2.2 0 1 0 0-.5.2.2 0 0 0 0 .5ZM62.3 119.5a.2.2 0 1 0 0-.5.2.2 0 0 0 0 .5ZM67.4 115.6a.2.2 0 1 0 0-.4.2.2 0 0 0 0 .4ZM65 118.1a.2.2 0 1 0 0-.5.2.2 0 0 0 0 .5ZM61.8 114a.2.2 0 1 0 0-.4.2.2 0 0 0 0 .5ZM67.2 114.5a.2.2 0 1 0 0-.5.2.2 0 0 0 0 .5ZM66.4 116.4a.2.2 0 1 0 0-.5.2.2 0 0 0 0 .5ZM63.9 119.3a.2.2 0 1 0 0-.5.2.2 0 0 0 0 .5ZM63.4 118.1a.2.2 0 1 0 0-.4.2.2 0 0 0 0 .4ZM62.2 115.5a.2.2 0 1 0 0-.5.2.2 0 0 0 0 .5ZM66.5 127.5h-7.3v.7h7.3v-.7Z" fill="#000"/><path d="M67.6 121.3H58v6.7h9.5v-6.7Z" fill="#D4DFEC"/><path opacity=".1" d="M64.2 120.4a.2.2 0 1 0 0-.5.2.2 0 0 0 0 .5ZM62.8 120.7a.2.2 0 1 0 0-.5.2.2 0 0 0 0 .5Z" fill="#000"/></g><defs><linearGradient id="b" x1="39.3" y1="127.9" x2="39.3" y2="39.8" gradientUnits="userSpaceOnUse"><stop stop-color="gray" stop-opacity=".3"/><stop offset=".5" stop-color="gray" stop-opacity=".1"/><stop offset="1" stop-color="gray" stop-opacity=".1"/></linearGradient><linearGradient id="c" x1="39224.3" y1="54940.5" x2="39224.3" y2="6127.7" gradientUnits="userSpaceOnUse"><stop stop-color="gray" stop-opacity=".3"/><stop offset=".5" stop-color="gray" stop-opacity=".1"/><stop offset="1" stop-color="gray" stop-opacity=".1"/></linearGradient><clipPath id="a"><path fill="#fff" transform="translate(.5)" d="M0 0h178.9v130H0z"/></clipPath></defs></svg>