<svg width="204" height="130" fill="none" xmlns="http://www.w3.org/2000/svg"><g clip-path="url(#a)"><path opacity=".5" d="m191 111-2-4a11 11 0 0 1-1-10l2-6-3-2c-4-3-8-4-13-4-6 1-12 3-17 2-6-1-10-4-16-4l-13-1-32-1-32 1-13 1c-5 0-10 3-15 4-6 1-12-1-17-2-5 0-10 1-14 4l-2 2c-1 2 1 4 1 6a11 11 0 0 1 0 10l-3 4c0 3 3 6 5 7 8 3 18 2 25 6 3 3 6 6 10 6 3 0 5-1 7-3l11-4c3-2 6-2 10-2 5 0 27 11 37 5 7-4 12-5 18-5 3 0 6 0 10 2l10 4c2 2 5 3 7 3 4 0 7-3 10-6 8-4 17-3 25-6 3-1 6-4 5-7Z" fill="url(#b)"/><path d="m190 111-2-4a11 11 0 0 1-1-10l2-5-3-3c-4-2-8-4-13-3-6 0-11 2-17 1-5-1-10-4-15-4l-13-1H65l-13 1c-6 0-10 3-16 4-5 1-11-1-17-1-4-1-9 1-13 3-1 1-2 1-2 3-1 1 1 3 1 5a11 11 0 0 1 0 10l-3 4c0 3 3 6 5 7 8 3 18 2 25 6 3 2 6 6 10 6l7-3 10-5c3-1 7-2 10-1 5 0 27 11 37 5 7-5 12-5 17-5 4-1 7 0 10 1l11 5c2 1 4 3 7 3 4 0 6-4 10-6 7-4 16-3 24-6 3-1 6-4 5-7Z" fill="#00BAFC"/><path opacity=".6" d="m8 47 2-1 2 3 1 3 1 3h8l2 1v8l3 5v2l-2 2-1 5v5h-5c-2-1-4-4-7-4H8l-2-2v-3l1-3-1-2-5-4a5 5 0 0 1 1-5l1-1 1-3v-6c1-2 2-3 4-3Z" fill="#00BAFC"/><path opacity=".6" d="M8 47s6 32 13 36" stroke="#535461" stroke-miterlimit="10"/><path opacity=".6" d="M24 56s-6 1-12 7M13 67s-5-5-12-4M27 69s-9 1-12 4M16 76s-5-1-9 2" stroke="#535461" stroke-miterlimit="10"/><path opacity=".6" d="M188 21h-3c-2 0-3 2-3 3l-1 6-3 4h-11c-2 0-5 1-5 3-1 1 0 3 1 4v8l-5 8v3l3 3c2 3 2 6 2 9v8h7c4-1 7-7 12-7h7l2-3v-5l-1-4 2-3c2-3 6-4 7-7 2-3 1-7-1-9l-1-2-2-4v-9c-1-3-4-5-7-6Z" fill="#00BAFC"/><path opacity=".6" d="M188 21s-9 52-21 58" stroke="#535461" stroke-miterlimit="10"/><path opacity=".6" d="M162 36s10 1 20 11M180 53s8-7 20-6M158 57s14 1 19 6M175 68s8-1 15 4" stroke="#535461" stroke-miterlimit="10"/><path d="M17 0v106h154V0H17Z" fill="url(#c)"/><path d="M170 5H19v99h151V5Z" fill="#fff"/><path d="M170 0H19v7h151V0Z" fill="#EEE"/><path d="M25 5a2 2 0 1 0 0-3 2 2 0 0 0 0 3Z" fill="#FF5252"/><path d="M29 5a2 2 0 1 0 0-3 2 2 0 0 0 0 3Z" fill="#FF0"/><path d="M34 5a2 2 0 1 0 0-3 2 2 0 0 0 0 3Z" fill="#69F0AE"/><path opacity=".5" d="M81 19H25v2h56v-2ZM81 24H25v2h56v-2ZM81 28H25v3h56v-3ZM81 33H44v2h37v-2ZM54 38H25v2h29v-2ZM63 42H41v3h22v-3ZM155 35H88v39h67V35Z" fill="#00BAFC"/><path d="M162 39H96v38h66V39Z" fill="#EEE"/><path opacity=".5" d="M202 74h1v-1c-1-1-6-6-7-13l-1-2v-4a13 13 0 0 0 1-2c1-2-2-4-1-6l1-3-2-2-3-1c-3-1-4-3-6-5l-9-1a1 1 0 0 0 0 1h-1l-1 2-3 2c-1 2 0 3 2 4v1a6 6 0 0 0 6 5l2 2-2 1v1l-7 3c-3 0-7-9-7-9s0-4-3-5l-1 1c-1 1 1 7 1 7l5 10 3 2 11-3v1l-1 2c0 1 1 4 5 6 0 0 3 4 3 8v1l-1 3v1l-4 8a47 47 0 0 1-5 5l-1 3 1 4-1 10-1 3s-2 3-5 4c-4 0-4 2-2 2h13v-2l9-1v-2l-1-2v-3c0-2 1-10-1-12l-1-4c3-1 6-5 8-7l1 1s6-4 6-9l-1-5Zm-21 41 1-3 2-7 1 5 1 2-5 3Z" fill="url(#d)"/><path d="m186 55-4 3-11 3c-2 0-2-1-3-2l-5-9s-2-8 0-7 3 5 3 5 4 8 7 8l6-3 3-2 4 4Z" fill="#FDB797"/><path opacity=".1" d="m186 55-4 3-11 3c-2 0-2-1-3-2l-5-9s-2-8 0-7 3 5 3 5 4 8 7 8l6-3 3-2 4 4Z" fill="#000"/><path d="m182 51-3 2 1 4 5-2-2-5-1 1Z" fill="#F9CE43"/><path opacity=".1" d="m182 51-3 2 1 4 5-2-2-5-1 1Z" fill="#000"/><path d="M177 49s6 1 3 5l8-4s-3 0-5-5l-6 4ZM187 80l-6 12 4 17v5h5l-1-5V97c-2-2 1-5 1-5l5-9-8-3Z" fill="#FDB797"/><path opacity=".1" d="m187 80-6 12 4 17v5h5l-1-5V97c-2-2 1-5 1-5l5-9-8-3Z" fill="#000"/><path d="M185 111s-1 3-5 4c-3 1-3 2-2 3l13-2v-2l-1-3h-5Z" fill="#0D134D"/><path opacity=".1" d="m188 75-1 5v1l3 1 3-5-5-2Z" fill="#000"/><path d="m188 75-1 5v1l3 1 3-5-5-2Z" fill="#E23553"/><path opacity=".1" d="m188 75-1 5v1l3 1 3-5-5-2Z" fill="#000"/><path d="m188 83-6 6-2 3-2 1v7l-1 10-1 5 5 1s-1-3 1-5c0 0 3-5 2-12 0 0 0-3 3-4l10-9-9-3Z" fill="#FDB797"/><path d="m177 114-6 3c-3 0-3 2-2 2h13v-3l-1-2h-4Z" fill="#0D134D"/><path opacity=".1" d="m191 76-3 7 8 4s10-5 5-14l-10 3Z" fill="#000"/><path d="m191 76-3 7 8 4s10-5 5-14l-10 3Z" fill="#E23553"/><path opacity=".1" d="m183 52-3 1 1 7s-2 5 3 8c0 0 4 4 3 8l3 2h5c4-1 7-3 7-4-1-1-5-7-7-13-1-7-8-11-8-11l-4 2Z" fill="#000"/><g opacity=".1" fill="#000"><path opacity=".1" d="M188 83ZM201 73h-1c5 9-4 14-4 14s10-5 5-14Z"/></g><path d="M195 78h-5l-3-2c1-4-3-8-3-8-5-3-3-8-3-8v-2l-1-5 2-1 4-2 1-1s7 5 8 12c2 6 6 12 7 12 0 1-3 4-7 5Z" fill="#F9CE43"/><path opacity=".1" d="m183 45-6 4 3 1 3-3v-2Z" fill="#000"/><path d="M179 50a5 5 0 1 0 0-11 5 5 0 0 0 0 11Z" fill="#FDB797"/><path opacity=".1" d="M196 77h-5c-1 1-3-1-3-1v-1c0-4-3-8-3-8-5-3-3-7-3-7l-1-2v-5h-1l1 5v2s-2 5 3 8c0 0 4 4 3 8l3 2h5l5-2-4 1Z" fill="#000"/><path d="m186 56-5 3-10 3c-2 0-2-1-3-2l-5-9s-2-8 0-7 3 5 3 5 4 8 6 8l7-3 2-2 5 4Z" fill="#FDB797"/><path opacity=".1" d="M182 52s-2 0-3 3 5 5 5 5l4-5-6-3Z" fill="#000"/><path d="M182 52s-2 0-3 3 6 5 6 5l3-5-6-3Z" fill="#F9CE43"/><g opacity=".1" fill="#000"><path opacity=".1" d="m181 52-1 1 1-1ZM202 73c-1 0-5-6-7-12-1-7-8-12-8-12l-1 1a29 29 0 0 0-1 0h1s7 5 8 11c2 7 6 12 6 13 1 1 0 2-2 3l4-4Z"/></g><path opacity=".1" d="M184 52s3 1 3 4" stroke="#000" stroke-miterlimit="10"/><path opacity=".1" d="m176 44 1 1 1 1 2 1c2 1 1 4 2 5h1l1 4 1 3h3l1 1a1 1 0 0 0 1 1l1-1h3l1-2-1-3 1-2c1-2-1-4-1-6l1-2c0-2-1-2-2-3l-3-1-5-4-3-1a9 9 0 0 0-8 2l-2 2c-2 3 2 4 4 4Z" fill="#000"/><path d="m176 44 1 1 1 1 2 1c2 1 1 3 2 4l1 1c2 0 1 2 1 4 0 1 0 3 2 3h2l1 1a1 1 0 0 0 1 0h4l1-3-1-2 1-2c1-2-1-4-1-6l1-3-2-2-3-1-5-5-3-1a9 9 0 0 0-7 2l-1 1-2 2c-2 3 2 3 4 4ZM133 77H96v-7c9-4 23-6 37 7Z" fill="#00BAFC"/><path opacity=".1" d="M162 76v1h-46s23-22 46-1Z" fill="#000"/><path d="M162 76v1h-46s23-22 46-1ZM104 49a3 3 0 1 0 0-7 3 3 0 0 0 0 7Z" fill="#00BAFC"/><path d="M133 43h-2l-2 1h25l6-1h-27ZM138 47v1h4l1-1h1-6ZM124 53l-1 1h4v-1h3-6Z" fill="#F4F4F4"/><path d="M116 75h-1s-1-17 1-23h1s-2 20-1 23Z" fill="#00BAFC"/><path d="m115 51-1 6 2-4c1-1 2 4 2 4v-5l3 3-2-4 4 2-3-3s0-2 3-1c0 0 0-2-4-1l3-1s0-2-3-1l1-1h-2l-1-2v2l-2-1 1 1s-2-1-4 1l3 1h-3l2 1-4 1h4l-4 4 4-3-2 4 3-3ZM136 75h1s1-14-1-18v18Z" fill="#00BAFC"/><path d="M137 56v4l-1-3-2 3 1-3c-2 0-2 1-3 2l2-3-3 1 2-2h-2s0-2 3-1l-2-1 2-1-1-1 1 1 1-2 1 2 1-2-1 2h3l-2 1h2-1l2 1-2 1 3 2-4-1 2 3-2-3ZM151 72V61h-1l1 11Z" fill="#00BAFC"/><path d="M151 61v2l-1-2-1 2 1-2-2 2 1-3-2 1 2-1h-2l2-1-1-1h2v-1 1l1-1v1a1 1 0 0 1 2 0h-2 1v1h1l-1 1 2 1-2-1 1 2-2-1Z" fill="#00BAFC"/><path d="M123 63v-2h-1v-1 1a1 1 0 0 0 0-1v-1 1-1a1 1 0 0 0-1 1s-1 0 0 0a1 1 0 0 1-1 1h1-1v4l-1 2v4-1h1v-2l1-3v6-1h1v-5l1-2Zm-1 1Zm0-1v1-1Zm-2 0v1-1Z" fill="url(#e)"/><path d="M121 60v1a1 1 0 0 1-1 0h1v-1Z" fill="#72351C"/><path d="M119 69v1c0 1 0 1 0 0h1v-1h-1ZM121 69v2-1h1v-1h-1Z" fill="#333"/><path d="M120 64v1l-1 2v2h1v-1l1-3v5h1v-6h-2Z" fill="#4D8AF0"/><g opacity=".1" fill="#000"><path opacity=".1" d="m121 65-1 3v1-1l1-3ZM122 64v6-6Z"/></g><path d="M120 63v-1 1Z" fill="#F55F44"/><path opacity=".1" d="M120 63v-1 1Z" fill="#000"/><path d="M122 63h1-1Z" fill="#F55F44"/><path opacity=".1" d="M123 63h-1 1" fill="#000"/><path d="M121 61a1 1 0 1 0 0-2 1 1 0 0 0 0 2Z" fill="#72351C"/><path d="M121 61v1h1v-2l-1 1Z" fill="#FDB797"/><path opacity=".1" d="M120 62v4-4Z" fill="#000"/><path d="M120 62v4-4Z" fill="#FDB797"/><path opacity=".1" d="M123 62v1l-1 2v1-4h1Z" fill="#000"/><path d="M123 62v1l-1 2v1-4h1Z" fill="#FDB797"/><path opacity=".1" d="m121 62 1-1v1h1v1h-1v1h-2v-2a1 1 0 0 1 0-1h1v1Z" fill="#000"/><path opacity=".1" d="m121 62 1-1v1h1v1h-1v1h-2v-1s0-1 0 0v-1a1 1 0 0 1 0-1h1v1Z" fill="#000"/><path d="m121 62 1-1v1h1v1h-1v1h-2v-2a1 1 0 0 1 0-1h1v1Z" fill="#F55F44"/><path opacity=".1" d="m122 60-1 1h1v-1Z" fill="#000"/><path d="M121 61a1 1 0 1 0 0-1 1 1 0 0 0 0 1Z" fill="#FDB797"/><path d="M122 60v-1 1ZM122 60ZM122 60ZM122 61v-1 1ZM122 60v-1 1-1 1ZM122 60v-1 1Z" fill="#72351C"/><path opacity=".1" d="M122 62v1M120 62v1M120 64h1M120 63h2" fill="#000"/><path d="M120 66Z" fill="#FDB797"/><path d="M120 66ZM121 65h1-1ZM121 65h1-1ZM121 65h1-1ZM121 65h1-1ZM120 66v1-1ZM120 66ZM120 66ZM120 66ZM120 66ZM120 66Z" fill="#F0E4E4"/><path opacity=".1" d="M121 60v1h1v-1h-1Z" fill="#000"/><path d="M121 60v1h1v-1h-1Z" fill="#72351C"/><path opacity=".1" d="M121 60h1v1-1h-1Z" fill="#000"/><path d="M121 60h1v1-1l-1-1v1Z" fill="#72351C"/><path d="M121 65h1-1ZM121 65h1-1ZM121 65h1-1ZM121 65h1-1ZM121 68h1-1ZM121 68h1-1ZM121 68h1-1ZM121 68h1-1Z" fill="#F0E4E4"/></g><defs><linearGradient id="b" x1="96.2" y1="130" x2="96.2" y2="81.1" gradientUnits="userSpaceOnUse"><stop stop-color="gray" stop-opacity=".3"/><stop offset=".5" stop-color="gray" stop-opacity=".1"/><stop offset="1" stop-color="gray" stop-opacity=".1"/></linearGradient><linearGradient id="c" x1="67909.7" y1="52246.1" x2="67909.7" y2="0" gradientUnits="userSpaceOnUse"><stop stop-color="gray" stop-opacity=".3"/><stop offset=".5" stop-color="gray" stop-opacity=".1"/><stop offset="1" stop-color="gray" stop-opacity=".1"/></linearGradient><linearGradient id="d" x1="41634.5" y1="61047.3" x2="41634.5" y2="26293.6" gradientUnits="userSpaceOnUse"><stop stop-color="gray" stop-opacity=".3"/><stop offset=".5" stop-color="gray" stop-opacity=".1"/><stop offset="1" stop-color="gray" stop-opacity=".1"/></linearGradient><linearGradient id="e" x1="3089.7" y1="5676.2" x2="3089.7" y2="5025.4" gradientUnits="userSpaceOnUse"><stop stop-color="gray" stop-opacity=".3"/><stop offset=".5" stop-color="gray" stop-opacity=".1"/><stop offset="1" stop-color="gray" stop-opacity=".1"/></linearGradient><clipPath id="a"><path fill="#fff" transform="translate(1)" d="M0 0h203v130H0z"/></clipPath></defs></svg>